<svg width="41" height="41" viewBox="0 0 41 41" fill="none" xmlns="http://www.w3.org/2000/svg">
<rect x="0.5" y="0.074585" width="40" height="40" rx="20" fill="#EED0DC"/>
<path fill-rule="evenodd" clip-rule="evenodd" d="M26.5002 16.0746C26.5002 19.3883 23.814 22.0746 20.5002 22.0746C17.1865 22.0746 14.5002 19.3883 14.5002 16.0746C14.5002 12.7609 17.1865 10.0746 20.5002 10.0746C23.814 10.0746 26.5002 12.7609 26.5002 16.0746ZM24.5002 16.0746C24.5002 18.2837 22.7094 20.0746 20.5002 20.0746C18.2911 20.0746 16.5002 18.2837 16.5002 16.0746C16.5002 13.8654 18.2911 12.0746 20.5002 12.0746C22.7094 12.0746 24.5002 13.8654 24.5002 16.0746Z" fill="#A40043"/>
<path d="M20.5002 25.0746C14.0259 25.0746 8.50952 28.903 6.4082 34.2666C6.9201 34.7749 7.45934 35.2557 8.02353 35.7066C9.58827 30.7823 14.497 27.0746 20.5002 27.0746C26.5035 27.0746 31.4122 30.7823 32.977 35.7067C33.5412 35.2558 34.0804 34.775 34.5923 34.2666C32.491 28.903 26.9746 25.0746 20.5002 25.0746Z" fill="#A40043"/>
</svg>
