<svg width="124" height="20" viewBox="0 0 124 20" fill="none" xmlns="http://www.w3.org/2000/svg">
<g clip-path="url(#clip0_80_34)">
<path d="M5.48498 19.3038C4.97006 19.5513 4.38577 19.1175 4.48982 18.5638L5.59704 12.6513L0.897384 8.45627C0.458501 8.06377 0.686613 7.34627 1.2749 7.26877L7.8088 6.39877L10.7222 0.990015C10.985 0.502515 11.696 0.502515 11.9588 0.990015L14.8723 6.39877L21.4062 7.26877C21.9945 7.34627 22.2226 8.06377 21.7824 8.45627L17.084 12.6513L18.1913 18.5638C18.2953 19.1175 17.711 19.5513 17.1961 19.3038L11.3385 16.4838L5.48365 19.3038H5.48498Z" fill="#A40043"/>
</g>
<g clip-path="url(#clip1_80_34)">
<path d="M30.8289 19.3038C30.3139 19.5513 29.7296 19.1175 29.8337 18.5638L30.9409 12.6513L26.2413 8.45627C25.8024 8.06377 26.0305 7.34627 26.6188 7.26877L33.1527 6.39877L36.0661 0.990015C36.3289 0.502515 37.0399 0.502515 37.3027 0.990015L40.2162 6.39877L46.75 7.26877C47.3383 7.34627 47.5664 8.06377 47.1262 8.45627L42.4279 12.6513L43.5351 18.5638C43.6392 19.1175 43.0549 19.5513 42.54 19.3038L36.6824 16.4838L30.8275 19.3038H30.8289Z" fill="#A40043"/>
</g>
<g clip-path="url(#clip2_80_34)">
<path d="M56.1728 19.3038C55.6579 19.5513 55.0736 19.1175 55.1776 18.5638L56.2848 12.6513L51.5852 8.45627C51.1463 8.06377 51.3744 7.34627 51.9627 7.26877L58.4966 6.39877L61.41 0.990015C61.6728 0.502515 62.3838 0.502515 62.6466 0.990015L65.5601 6.39877L72.094 7.26877C72.6823 7.34627 72.9104 8.06377 72.4702 8.45627L67.7718 12.6513L68.879 18.5638C68.9831 19.1175 68.3988 19.5513 67.8839 19.3038L62.0263 16.4838L56.1714 19.3038H56.1728Z" fill="#A40043"/>
</g>
<g clip-path="url(#clip3_80_34)">
<path d="M81.5166 19.3038C81.0017 19.5513 80.4174 19.1175 80.5214 18.5638L81.6286 12.6513L76.929 8.45627C76.4901 8.06377 76.7182 7.34627 77.3065 7.26877L83.8404 6.39877L86.7538 0.990015C87.0166 0.502515 87.7277 0.502515 87.9905 0.990015L90.9039 6.39877L97.4378 7.26877C98.0261 7.34627 98.2542 8.06377 97.814 8.45627L93.1157 12.6513L94.2229 18.5638C94.3269 19.1175 93.7426 19.5513 93.2277 19.3038L87.3701 16.4838L81.5153 19.3038H81.5166Z" fill="#A40043"/>
</g>
<g clip-path="url(#clip4_80_34)">
<path d="M106.861 19.3038C106.346 19.5513 105.761 19.1175 105.865 18.5638L106.973 12.6513L102.273 8.45627C101.834 8.06377 102.062 7.34627 102.65 7.26877L109.184 6.39877L112.098 0.990015C112.361 0.502515 113.072 0.502515 113.334 0.990015L116.248 6.39877L122.782 7.26877C123.37 7.34627 123.598 8.06377 123.158 8.45627L118.46 12.6513L119.567 18.5638C119.671 19.1175 119.087 19.5513 118.572 19.3038L112.714 16.4838L106.859 19.3038H106.861Z" fill="#A40043"/>
</g>
<defs>
<clipPath id="clip0_80_34">
<rect width="21.3439" height="20" fill="white" transform="translate(0.666626)"/>
</clipPath>
<clipPath id="clip1_80_34">
<rect width="21.3439" height="20" fill="white" transform="translate(26.0105)"/>
</clipPath>
<clipPath id="clip2_80_34">
<rect width="21.3439" height="20" fill="white" transform="translate(51.3544)"/>
</clipPath>
<clipPath id="clip3_80_34">
<rect width="21.3439" height="20" fill="white" transform="translate(76.6982)"/>
</clipPath>
<clipPath id="clip4_80_34">
<rect width="21.3439" height="20" fill="white" transform="translate(102.042)"/>
</clipPath>
</defs>
</svg>
