<svg width="18" height="16" viewBox="0 0 18 16" fill="none" xmlns="http://www.w3.org/2000/svg">
<path d="M12.027 0.70124V0.697998H12.871L13.1794 0.75959C13.385 0.799576 13.5717 0.851978 13.7394 0.916812C13.9071 0.981645 14.0694 1.05729 14.2263 1.14373C14.3832 1.23017 14.5255 1.31825 14.6532 1.40793C14.7798 1.49654 14.8934 1.59055 14.994 1.68995C15.0936 1.79044 15.2488 1.81638 15.4598 1.76775C15.6708 1.71913 15.8981 1.65159 16.1415 1.56515C16.385 1.47871 16.6258 1.38146 16.8638 1.2734C17.1019 1.16534 17.2469 1.09672 17.2988 1.06755C17.3497 1.0373 17.3767 1.0211 17.38 1.01892L17.3832 1.01406L17.3994 1.00596L17.4157 0.997854L17.4319 0.989749L17.4481 0.981645L17.4514 0.976783L17.4562 0.973541L17.4611 0.970299L17.4644 0.965437L17.4806 0.960574L17.4968 0.957333L17.4936 0.981645L17.4887 1.00596L17.4806 1.03027L17.4725 1.05458L17.4644 1.07079L17.4562 1.087L17.4481 1.11131C17.4427 1.12752 17.4373 1.14913 17.4319 1.17615C17.4265 1.20317 17.3751 1.31121 17.2777 1.50031C17.1803 1.68942 17.0586 1.88121 16.9125 2.07571C16.7664 2.27021 16.6355 2.41716 16.5197 2.51658C16.4029 2.61707 16.3255 2.6873 16.2876 2.72729C16.2498 2.76835 16.2038 2.80616 16.1497 2.84075L16.0685 2.89424L16.0523 2.90234L16.036 2.91045L16.0328 2.91531L16.0279 2.91855L16.0231 2.92179L16.0198 2.92665L16.0036 2.93476L15.9873 2.94286L15.9841 2.94773L15.9792 2.95097L15.9744 2.95421L15.9711 2.95907L15.9679 2.96393L15.963 2.96718L15.9581 2.97042L15.9549 2.97528H16.036L16.4905 2.87803C16.7935 2.8132 17.0829 2.73486 17.3589 2.64301L17.7971 2.49713L17.8458 2.48092L17.8701 2.47282L17.8864 2.46471L17.9026 2.45661L17.9188 2.44851L17.935 2.4404L17.9675 2.43554L18 2.4323V2.46471L17.9919 2.46796L17.9837 2.47282L17.9805 2.47768L17.9756 2.48092L17.9708 2.48416L17.9675 2.48903L17.9643 2.49389L17.9594 2.49713L17.9545 2.50037L17.9513 2.50524L17.948 2.5101L17.9432 2.51334L17.935 2.52955L17.9269 2.54576L17.9221 2.549C17.9199 2.55224 17.8512 2.64408 17.7159 2.82454C17.5807 3.00608 17.5076 3.09791 17.4968 3.10008C17.486 3.10333 17.4708 3.11953 17.4514 3.14871C17.433 3.17895 17.3183 3.29945 17.1073 3.51016C16.8963 3.72087 16.6896 3.90833 16.4873 4.07259C16.2838 4.23791 16.181 4.44105 16.1789 4.68202C16.1756 4.92191 16.1632 5.19314 16.1415 5.49569C16.1199 5.79825 16.0793 6.12511 16.0198 6.4763C15.9603 6.82748 15.8683 7.22459 15.7439 7.66761C15.6195 8.11064 15.468 8.54287 15.2894 8.96429C15.1109 9.3857 14.9242 9.7639 14.7295 10.0989C14.5347 10.4339 14.3561 10.7175 14.1938 10.9498C14.0315 11.1821 13.8665 11.4009 13.6988 11.6063C13.5311 11.8116 13.319 12.0428 13.0626 12.3C12.805 12.5561 12.6644 12.6965 12.6406 12.7214C12.6157 12.7452 12.5096 12.8338 12.3224 12.9872C12.1363 13.1417 11.9361 13.2962 11.7219 13.4508C11.5087 13.6042 11.3129 13.7323 11.1343 13.8349C10.9558 13.9376 10.7405 14.0548 10.4883 14.1866C10.2373 14.3195 9.9657 14.4427 9.67355 14.5562C9.38139 14.6696 9.07301 14.775 8.74839 14.8723C8.42377 14.9695 8.10998 15.0451 7.807 15.0992C7.50404 15.1532 7.16048 15.1991 6.77634 15.2369L6.20015 15.2937V15.3018H5.14515V15.2937L5.00718 15.2856C4.91522 15.2802 4.83947 15.2748 4.77995 15.2694C4.72045 15.264 4.49591 15.2342 4.10637 15.1802C3.71683 15.1262 3.41116 15.0721 3.18933 15.0181C2.96752 14.9641 2.63748 14.8614 2.19925 14.7102C1.76102 14.5589 1.38608 14.406 1.07445 14.2515C0.763906 14.098 0.569136 14.0008 0.490141 13.9597C0.412233 13.9197 0.324586 13.87 0.227201 13.8106L0.0811237 13.7215L0.0778937 13.7166L0.0730083 13.7134L0.068139 13.7101L0.0648928 13.7052L0.048662 13.6971L0.0324312 13.689L0.0292012 13.6842L0.0243157 13.6809L0.0194465 13.6777L0.0162003 13.6728L0.0129704 13.668L0.0080849 13.6647H-3.05176e-05V13.6323L0.0162003 13.6355L0.0324312 13.6404L0.10547 13.6485C0.154162 13.6539 0.28672 13.662 0.503125 13.6728C0.719547 13.6836 0.949474 13.6836 1.19294 13.6728C1.4364 13.662 1.68528 13.6377 1.93955 13.5999C2.19384 13.5621 2.49411 13.4972 2.84037 13.4054C3.18663 13.3135 3.50476 13.2044 3.79476 13.078C4.08366 12.9505 4.28924 12.8554 4.41153 12.7927C4.53271 12.7311 4.71774 12.6166 4.96661 12.4491L5.33992 12.1979L5.34316 12.193L5.34803 12.1898L5.35292 12.1865L5.35615 12.1817L5.35939 12.1768L5.36426 12.1736L5.36915 12.1703L5.37238 12.1654L5.38861 12.1606L5.40484 12.1573L5.40808 12.1411L5.41295 12.1249L5.41784 12.1217L5.42107 12.1168L5.29122 12.1087C5.20466 12.1033 5.1208 12.0979 5.03964 12.0925C4.95849 12.0871 4.83135 12.0628 4.65822 12.0196C4.4851 11.9763 4.29845 11.9115 4.09826 11.8251C3.89808 11.7386 3.70331 11.636 3.51395 11.5171C3.3246 11.3983 3.18771 11.2994 3.10331 11.2205C3.01999 11.1427 2.91178 11.0325 2.77869 10.8898C2.64668 10.7461 2.53198 10.5986 2.4346 10.4474C2.33721 10.2961 2.24416 10.1216 2.15544 9.92382L2.02071 9.62883L2.01259 9.60452L2.00448 9.58021L1.99961 9.564L1.99636 9.54779L2.02071 9.55103L2.04506 9.55589L2.22359 9.58021C2.34263 9.59641 2.52929 9.60181 2.78356 9.59641C3.03785 9.59102 3.21368 9.58021 3.31106 9.564C3.40845 9.54779 3.46796 9.53698 3.4896 9.53158L3.52206 9.52348L3.56264 9.51537L3.60322 9.50727L3.60646 9.50241L3.61133 9.49916L3.61622 9.49592L3.61945 9.49106L3.58698 9.48295L3.55452 9.47485L3.52206 9.46675L3.4896 9.45864L3.45714 9.45054C3.4355 9.44514 3.39764 9.43433 3.34352 9.41812C3.28942 9.40191 3.14335 9.34248 2.90529 9.23983C2.66725 9.13718 2.47788 9.03722 2.33721 8.93997C2.19619 8.84244 2.06173 8.73578 1.93469 8.62067C1.80808 8.50397 1.66905 8.35376 1.51755 8.17007C1.36607 7.98638 1.23082 7.77297 1.11178 7.52984C0.992761 7.28672 0.903492 7.0544 0.843973 6.83288C0.784694 6.61266 0.745584 6.38752 0.727127 6.16023L0.697896 5.81986L0.714126 5.8231L0.730357 5.82796L0.746588 5.83606L0.762819 5.84417L0.77905 5.85227L0.795281 5.86038L1.04686 5.97383C1.21459 6.04948 1.42288 6.11431 1.67175 6.16834C1.92063 6.22236 2.0694 6.25208 2.11809 6.25748L2.19113 6.26559H2.33721L2.33398 6.26072L2.32909 6.25748L2.32423 6.25424L2.32098 6.24938L2.31775 6.24452L2.31286 6.24127L2.30799 6.23803L2.30475 6.23317L2.28852 6.22507L2.27229 6.21696L2.26906 6.2121L2.26417 6.20886L2.2593 6.20562L2.25606 6.20075L2.23983 6.19265L2.22359 6.18454L2.22036 6.17968C2.21712 6.17751 2.17058 6.14294 2.08076 6.07595C1.99203 6.00787 1.89898 5.91981 1.80159 5.81175C1.70421 5.70369 1.60682 5.59023 1.50944 5.47137C1.41187 5.35225 1.32497 5.22479 1.24974 5.09048C1.17401 4.95541 1.09393 4.78359 1.00953 4.57505C0.926215 4.36758 0.862914 4.15849 0.819627 3.94778C0.776355 3.73707 0.752009 3.52907 0.746588 3.32376C0.741183 3.11845 0.746588 2.94286 0.762819 2.79699C0.77905 2.65111 0.811511 2.48632 0.860204 2.30263C0.908896 2.11894 0.979241 1.92444 1.0712 1.71913L1.20917 1.41117L1.21728 1.38686L1.2254 1.36254L1.23028 1.3593L1.23351 1.35444L1.23676 1.34958L1.24163 1.34633L1.24651 1.34958L1.24974 1.35444L1.25299 1.3593L1.25786 1.36254L1.26275 1.36578L1.26597 1.37065L1.26922 1.37551L1.27409 1.37875L1.28221 1.39496L1.29032 1.41117L1.29521 1.41441L1.29844 1.41927L1.51755 1.6624C1.66363 1.82448 1.83676 2.00548 2.03694 2.20538C2.23713 2.40528 2.34804 2.50901 2.36967 2.51658C2.39132 2.52522 2.41836 2.55007 2.45083 2.59114C2.48329 2.63113 2.5915 2.72676 2.77544 2.87803C2.9594 3.0293 3.20016 3.2049 3.49772 3.4048C3.79529 3.6047 4.12531 3.80191 4.4878 3.99641C4.8503 4.19091 5.23984 4.3665 5.65642 4.52318C6.07301 4.67987 6.36517 4.78252 6.53288 4.83114C6.70061 4.87977 6.98735 4.94189 7.39312 5.01754C7.79889 5.09318 8.10458 5.14181 8.31016 5.16341C8.51575 5.18502 8.65643 5.19745 8.73216 5.20069L8.84578 5.20394L8.84255 5.17962L8.83766 5.15531L8.8052 4.95271C8.78356 4.81764 8.77274 4.62854 8.77274 4.38541C8.77274 4.14228 8.79168 3.91807 8.82955 3.71276C8.86743 3.50745 8.92424 3.29945 8.99997 3.08874C9.07572 2.87803 9.14985 2.70891 9.22233 2.58142C9.29592 2.45499 9.39222 2.31073 9.51124 2.14865C9.63028 1.98657 9.78447 1.81909 9.97382 1.64619C10.1632 1.47329 10.3796 1.31931 10.6231 1.18425C10.8665 1.04919 11.0911 0.946522 11.2966 0.876291C11.5022 0.80606 11.6754 0.760125 11.816 0.738519C11.9567 0.716913 12.027 0.704481 12.027 0.70124Z" fill="#CE769A"/>
</svg>
