<svg width="20" height="14" viewBox="0 0 20 14" fill="none" xmlns="http://www.w3.org/2000/svg">
<path d="M10.4386 13.9799L6.37644 13.904C5.06119 13.8776 3.74267 13.9304 2.45321 13.6563C0.491647 13.2468 0.352683 11.2389 0.207272 9.55462C0.00690975 7.18678 0.0844759 4.77596 0.462585 2.42789C0.67604 1.11037 1.51607 0.324198 2.81515 0.238648C7.2005 -0.0718273 11.615 -0.0350327 15.9906 0.109815C16.4528 0.123094 16.9181 0.195669 17.3737 0.27828C19.6231 0.681198 19.6779 2.9566 19.8237 4.87205C19.9691 6.80728 19.9077 8.75243 19.6298 10.6745C19.4068 12.2659 18.9802 13.6004 17.1798 13.7293C14.9241 13.8977 12.7201 14.0333 10.458 13.9902C10.4581 13.9799 10.4451 13.9799 10.4386 13.9799ZM8.05045 9.95095C9.75036 8.95354 11.4178 7.97275 13.108 6.98203C11.4049 5.98461 9.74064 5.00382 8.05045 4.0131V9.95095Z" fill="#CE769A"/>
</svg>
