<svg width="24" height="24" viewBox="0 0 24 24" fill="none" xmlns="http://www.w3.org/2000/svg">
<path fill-rule="evenodd" clip-rule="evenodd" d="M22.4999 12.0002C22.4999 11.8013 22.4209 11.6105 22.2802 11.4699C22.1396 11.3292 21.9488 11.2502 21.7499 11.2502H4.06038L8.78088 6.53122C8.85061 6.46148 8.90592 6.3787 8.94366 6.28759C8.9814 6.19648 9.00082 6.09883 9.00082 6.00021C9.00082 5.9016 8.9814 5.80395 8.94366 5.71284C8.90592 5.62173 8.85061 5.53895 8.78088 5.46921C8.71114 5.39948 8.62836 5.34417 8.53725 5.30643C8.44614 5.26869 8.34849 5.24927 8.24988 5.24927C8.15126 5.24927 8.05361 5.26869 7.9625 5.30643C7.87139 5.34417 7.78861 5.39948 7.71888 5.46921L1.71888 11.4692C1.64903 11.5389 1.59362 11.6216 1.55581 11.7128C1.518 11.8039 1.49854 11.9016 1.49854 12.0002C1.49854 12.0989 1.518 12.1965 1.55581 12.2877C1.59362 12.3788 1.64903 12.4615 1.71888 12.5312L7.71888 18.5312C7.78861 18.6009 7.87139 18.6563 7.9625 18.694C8.05361 18.7317 8.15126 18.7512 8.24988 18.7512C8.34849 18.7512 8.44614 18.7317 8.53725 18.694C8.62836 18.6563 8.71114 18.6009 8.78088 18.5312C8.85061 18.4615 8.90592 18.3787 8.94366 18.2876C8.9814 18.1965 9.00082 18.0988 9.00082 18.0002C9.00082 17.9016 8.9814 17.8039 8.94366 17.7128C8.90592 17.6217 8.85061 17.5389 8.78088 17.4692L4.06038 12.7502H21.7499C21.9488 12.7502 22.1396 12.6712 22.2802 12.5305C22.4209 12.3899 22.4999 12.1991 22.4999 12.0002Z" fill="#A40043"/>
</svg>
