<svg width="24" height="24" viewBox="0 0 24 24" fill="none" xmlns="http://www.w3.org/2000/svg">
<path fill-rule="evenodd" clip-rule="evenodd" d="M1.99811 4.0005C1.99811 1.791 6.47561 0 11.9986 0C17.5216 0 21.9991 1.791 21.9991 4.0005V6C21.9961 8.211 17.5186 10.0005 11.9986 10.0005C6.47561 10.0005 1.99811 8.2095 1.99811 6V4.0005ZM1.99811 9.501V14.001C1.99811 16.2075 6.47561 18 11.9986 18C17.5186 18 21.9961 16.2105 21.9991 14.0025V9.501C21.3541 9.981 20.6026 10.371 19.8121 10.686C17.7136 11.526 14.9491 12 11.9986 12C9.04811 12 6.28361 11.5245 4.18361 10.686C3.40758 10.3858 2.67313 9.98753 1.99811 9.501V9.501ZM21.9991 17.502C21.3541 17.9805 20.6026 18.369 19.8121 18.6855C17.7121 19.5255 14.9491 19.9995 11.9986 19.9995C9.04811 19.9995 6.28361 19.5255 4.18361 18.6855C3.4076 18.3852 2.67315 17.987 1.99811 17.5005V19.9995C1.99811 22.209 6.47561 24 11.9986 24C17.5216 24 21.9991 22.209 21.9991 19.9995V17.502Z" fill="#A40043"/>
</svg>
